<svg width="210" height="210" viewBox="0 0 210 210" fill="none" xmlns="http://www.w3.org/2000/svg">
<rect width="210" height="210" rx="10" fill="#F58607"/>
<path d="M107 121H103V129H107V121Z" fill="black"/>
<path d="M107 73H103V81H107V73Z" fill="black"/>
<path d="M85 99H77V103H85V99Z" fill="black"/>
<path d="M133 99H125V103H133V99Z" fill="black"/>
<path d="M126.206 119.385L120.546 113.726L117.717 116.554L123.377 122.214L126.206 119.385Z" fill="black"/>
<path d="M92.2651 85.4458L86.6055 79.7861L83.7771 82.6145L89.4367 88.2742L92.2651 85.4458Z" fill="black"/>
<path d="M92.2737 116.553L89.4453 113.725L83.7857 119.384L86.6141 122.213L92.2737 116.553Z" fill="black"/>
<path d="M126.212 82.6145L123.383 79.7861L117.724 85.4458L120.552 88.2742L126.212 82.6145Z" fill="black"/>
<path d="M130.47 169.04C123.23 169.04 115.046 166.27 106.486 160.811C93.1173 152.286 80.2984 138.14 70.3914 120.98C60.4844 103.82 54.6434 85.6468 53.9444 69.8058C53.2254 53.4978 58.0384 41.5098 67.4974 36.0478C76.9564 30.5858 89.7464 32.4128 103.509 41.1888C116.878 49.7138 129.697 63.8598 139.604 81.0198C149.511 98.1798 155.352 116.353 156.051 132.194C156.77 148.502 151.956 160.49 142.497 165.951C138.922 168.016 134.869 169.04 130.47 169.04V169.04ZM79.5484 36.9598C75.8374 36.9598 72.4544 37.8048 69.4974 39.5118C61.3934 44.1898 57.2894 54.8858 57.9394 69.6288C58.6104 84.8388 64.2624 102.366 73.8554 118.98C83.4474 135.594 95.7983 149.251 108.635 157.438C121.078 165.373 132.392 167.165 140.496 162.488C148.6 157.81 152.704 147.114 152.054 132.371C151.383 117.161 145.731 99.6338 136.138 83.0198C126.546 66.4058 114.195 52.7488 101.358 44.5618C93.4554 39.5218 86.0074 36.9598 79.5484 36.9598V36.9598Z" fill="black"/>
<path d="M79.5301 169.04C75.1301 169.04 71.0791 168.017 67.5031 165.952C58.0441 160.491 53.2311 148.502 53.9491 132.195C54.6481 116.354 60.4891 98.1799 70.3961 81.0209C80.3031 63.8619 93.1221 49.7159 106.491 41.1899C120.253 32.4149 133.044 30.5859 142.503 36.0489C151.962 41.5099 156.775 53.4989 156.057 69.8059C155.358 85.6469 149.517 103.821 139.61 120.98C129.703 138.139 116.884 152.285 103.515 160.811C94.9551 166.269 86.7711 169.04 79.5301 169.04V169.04ZM130.452 36.9599C123.993 36.9599 116.546 39.5219 108.641 44.5619C95.8041 52.7489 83.4531 66.4059 73.8611 83.0199C64.2681 99.6339 58.6161 117.16 57.9451 132.371C57.2951 147.114 61.3991 157.81 69.5031 162.488C77.6051 167.165 88.9201 165.373 101.364 157.438C114.201 149.251 126.552 135.594 136.144 118.98C145.737 102.366 151.389 84.8399 152.06 69.6289C152.71 54.8859 148.606 44.1899 140.502 39.5119C137.547 37.8059 134.162 36.9599 130.452 36.9599V36.9599Z" fill="black"/>
<path d="M105 140.96C85.186 140.96 66.526 136.931 52.459 129.616C37.976 122.085 30 111.922 30 101C30 90.078 37.976 79.915 52.459 72.384C66.526 65.069 85.186 61.04 105 61.04C124.814 61.04 143.474 65.069 157.541 72.384C172.024 79.915 180 90.078 180 101C180 111.922 172.024 122.085 157.541 129.616C143.474 136.931 124.814 140.96 105 140.96V140.96ZM105 65.04C65.851 65.04 34 81.171 34 101C34 120.829 65.851 136.96 105 136.96C144.149 136.96 176 120.829 176 101C176 81.171 144.149 65.04 105 65.04V65.04Z" fill="black"/>
<path d="M105 116C113.284 116 120 109.284 120 101C120 92.7157 113.284 86 105 86C96.7157 86 90 92.7157 90 101C90 109.284 96.7157 116 105 116Z" fill="#FF8C1A"/>
<path d="M105 118C95.626 118 88 110.374 88 101C88 91.626 95.626 84 105 84C114.374 84 122 91.626 122 101C122 110.374 114.374 118 105 118ZM105 88C97.832 88 92 93.832 92 101C92 108.168 97.832 114 105 114C112.168 114 118 108.168 118 101C118 93.832 112.168 88 105 88Z" fill="black"/>
</svg>
